<svg width="28" height="28" viewBox="0 0 28 28" fill="none" xmlns="http://www.w3.org/2000/svg">
<g opacity="0.7">
<path d="M26.8332 3.50001C25.716 4.28807 24.479 4.89081 23.1698 5.28501C22.4672 4.47711 21.5334 3.90449 20.4947 3.64459C19.456 3.3847 18.3626 3.45007 17.3623 3.83188C16.3619 4.21368 15.503 4.89348 14.9016 5.77935C14.3003 6.66522 13.9855 7.71441 13.9998 8.78501V9.95168C11.9496 10.0048 9.91799 9.55013 8.08601 8.62803C6.25404 7.70594 4.67854 6.34509 3.49984 4.66668C3.49984 4.66668 -1.16683 15.1667 9.33317 19.8333C6.93045 21.4643 4.06819 22.2821 1.1665 22.1667C11.6665 28 24.4998 22.1667 24.4998 8.75001C24.4988 8.42504 24.4675 8.10087 24.4065 7.78168C25.5972 6.60742 26.4375 5.12484 26.8332 3.50001Z" fill="white"/>
</g>
</svg>
